<?xml version="1.0" encoding="utf-8"?>
<svg xmlns="http://www.w3.org/2000/svg" viewBox="0 0 1000 650">
  
  <rect width="100%" height="100%" fill="white"/>
  
  
  <g transform="translate(150, 30)">
    <rect width="12" height="12" fill="#FFB6C1"/>
    <text x="20" y="10" font-size="12">幼児期</text>
    <rect x="80" width="12" height="12" fill="#90EE90"/>
    <text x="100" y="10" font-size="12">小学生</text>
    <rect x="160" width="12" height="12" fill="#87CEFA"/>
    <text x="180" y="10" font-size="12">中学生</text>
    <rect x="240" width="12" height="12" fill="#DDA0DD"/>
    <text x="260" y="10" font-size="12">高校生</text>
    <rect x="320" width="12" height="12" fill="#F0E68C"/>
    <text x="340" y="10" font-size="12">大学生</text>
    <rect x="400" width="12" height="12" fill="#FFB347"/>
    <text x="420" y="10" font-size="12">大学院生</text>
  </g>

  
  <g stroke="#eee" stroke-width="1">
    
    <line x1="150" y1="100" x2="150" y2="450"/>
    <line x1="280" y1="100" x2="280" y2="450"/>
    <line x1="410" y1="100" x2="410" y2="450"/>
    <line x1="540" y1="100" x2="540" y2="450"/>
    <line x1="670" y1="100" x2="670" y2="450"/>
    <line x1="800" y1="100" x2="800" y2="450"/>
    
    <line x1="150" y1="100" x2="800" y2="100"/>
    <line x1="150" y1="190" x2="800" y2="190"/>
    <line x1="150" y1="280" x2="800" y2="280"/>
    <line x1="150" y1="370" x2="800" y2="370"/>
    <line x1="150" y1="450" x2="800" y2="450"/>
  </g>

  
  <g fill-opacity="0.2">
    <rect x="150" y="100" width="108" height="350" fill="#FFB6C1"/> 
    <rect x="258" y="100" width="108" height="350" fill="#90EE90"/> 
    <rect x="366" y="100" width="108" height="350" fill="#87CEFA"/> 
    <rect x="474" y="100" width="108" height="350" fill="#DDA0DD"/> 
    <rect x="582" y="100" width="108" height="350" fill="#F0E68C"/> 
    <rect x="690" y="100" width="110" height="350" fill="#FFB347"/> 
  </g>

  
  <text x="80" y="275" transform="rotate(-90, 80, 275)">モチベーション</text>
  <g fill="black" font-size="12">
    <text x="130" y="105">100</text>
    <text x="130" y="195">75</text>
    <text x="130" y="285">50</text>
    <text x="130" y="375">25</text>
    <text x="130" y="455">0</text>
  </g>

  
  <text x="475" y="490" text-anchor="middle">年齢</text>
  <g fill="black" font-size="12" text-anchor="middle">
    <text x="150" y="470">0</text>
    <text x="258" y="470">6</text>
    <text x="366" y="470">12</text>
    <text x="474" y="470">15</text>
    <text x="582" y="470">18</text>
    <text x="690" y="470">22</text>
    <text x="800" y="470">23</text>
  </g>

  
  <g font-size="12" text-anchor="middle">
    <text x="204" y="120">幼児期</text>
    <text x="312" y="120">小学生</text>
    <text x="420" y="120">中学生</text>
    <text x="528" y="120">高校生</text>
    <text x="636" y="120">大学生</text>
    <text x="745" y="120">大学院生</text>
  </g>

  
  <path d="M150,195 L258,370 L312,280 L366,190 L474,160 L582,195 L690,235 L745,145 L800,135" fill="none" stroke="#2f4f4f" stroke-width="2"/>

  
  <g fill="#2f4f4f">
    <circle cx="150" cy="195" r="5"/>  
    <circle cx="258" cy="370" r="5"/>  
    <circle cx="312" cy="280" r="5"/>  
    <circle cx="366" cy="190" r="5"/>  
    <circle cx="474" cy="160" r="5"/>  
    <circle cx="582" cy="195" r="5"/>  
    <circle cx="690" cy="235" r="5"/>  
    <circle cx="745" cy="145" r="5"/>   
    <circle cx="800" cy="135" r="5"/>   
  </g>

  
  <g transform="translate(150, 520)">
    <text x="325" y="0" text-anchor="middle" font-weight="bold" font-size="16">主要な出来事</text>
    <g font-size="12">
      <text x="0" y="40">0歳：保育園での自由な遊び</text>
      <text x="0" y="60">6歳：小学校でのいじめ被害</text>
      <text x="0" y="80">8歳：友人との関係構築</text>
      <text x="250" y="40">12歳：水泳での県大会出場</text>
      <text x="250" y="60">15歳：理想的な教員との出会い</text>
      <text x="250" y="80">18歳：大学でのアプリ開発</text>
      <text x="500" y="40">21歳：進路への迷い</text>
      <text x="500" y="60">22歳：外部大学院への進学決定</text>
      <text x="500" y="80">23歳：研究活動と将来像の明確化</text>
    </g>
  </g>
</svg>